<?xml version="1.0" encoding="UTF-8"?>
<svg id="Capa_1" data-name="Capa 1" xmlns="http://www.w3.org/2000/svg" viewBox="0 0 522 170">
  <defs>
    <style>
      .cls-1 {
        fill: #fff;
        stroke-width: 0px;
      }
    </style>
  </defs>
  <path class="cls-1" d="M168.32,125.08V.33c1-.15,1.94-.41,2.88-.4,17.87.08,35.75-.05,53.61.38,10.13.25,20.12,2.02,29.67,5.67,16.91,6.47,27.59,18.44,31.45,36.21,3.27,15.03,3.26,30.01-1.57,44.75-5.81,17.74-18.51,28.5-35.9,33.65-7.95,2.36-16.36,3.99-24.61,4.28-18.34.63-36.72.2-55.53.2ZM201.88,100.98c7.91-.37,15.57-.1,23.02-1.23,12.09-1.84,21.41-8.06,25.9-20,3.43-9.13,3.62-18.63,1.71-28.04-2.29-11.21-8.64-19.42-19.52-23.79-10.06-4.04-20.52-2.89-31.1-3.04v76.11Z"/>
  <path class="cls-1" d="M371.77,63.68c4.89,1.53,8.28,4.52,9.97,8.89,6.67,17.33,13.12,34.74,19.93,52.87-3.67,0-6.58,0-9.5,0-7.25,0-14.5-.19-21.74.09-3.11.12-4.34-.99-5.23-3.8-3.45-10.81-6.97-21.6-10.81-32.28-1.65-4.57-4.1-8.87-8.63-11.43-3.87-2.18-10.39-2.83-17.1-1.59v48.76h-32.99V.31c.46-.12.92-.35,1.37-.35,21.37.06,42.74-.02,64.1.33,7.16.12,14.08,2.19,20.28,5.96,12.62,7.68,16.52,20.41,12.59,36.39-2.55,10.36-9.6,16.63-19.63,19.76-.59.18-1.19.36-1.76.59-.22.09-.38.31-.82.7ZM328.81,52.08c8.37-.33,16.6.95,24.6-1.83,5.58-1.94,8.71-6.52,8.69-12.66-.02-5.42-3.07-9.81-8.34-11.69-8.07-2.88-16.41-2.27-24.95-2.11v28.3Z"/>
  <path class="cls-1" d="M35.62,125.22H2.41V.2h33.13c0,1.4,0,2.83,0,4.27,0,13.25.07,26.5-.06,39.74-.03,2.88.68,3.9,3.74,3.85,10.75-.18,21.5-.06,32.25-.08,1.09,0,2.18-.14,3.65-.25V.16h33.37v125.07h-33.3v-53.21h-39.56v53.21Z"/>
  <path class="cls-1" d="M517.69,125.44c-6.18,0-11.99,0-17.81,0-5.25,0-10.5-.12-15.74.06-2.33.08-3.28-.82-3.97-2.92-2.24-6.88-4.7-13.69-6.99-20.55-.79-2.38-1.88-3.56-4.75-3.51-13.37.19-26.74.17-40.11.02-2.75-.03-3.95.91-4.81,3.41-2.44,7.07-5.23,14.03-7.67,21.1-.74,2.14-2.05,2.86-3.9,2.32-1.29-.38-3.02-1.25-3.43-2.32-4.32-11.43-8.44-22.94-12.54-34.46-.3-.83-.25-1.97.07-2.81,10.52-27.9,21.07-55.78,31.74-83.62.39-1.01,2.11-2.13,3.23-2.15,11.99-.15,23.99,0,35.99-.15,3.76-.05,3.66,2.94,4.47,4.99,6.69,17.07,13.23,34.21,19.81,51.32,8.55,22.24,17.1,44.48,25.64,66.73.26.67.42,1.37.78,2.55ZM463.96,74.77c-5.02-16.5-9.87-32.43-14.72-48.36-.25.02-.49.05-.74.07-5.26,16-10.52,31.99-15.88,48.28h31.33Z"/>
  <path class="cls-1" d="M121.83.15h33.18v125.07h-33.18V.15Z"/>
  <path class="cls-1" d="M339.93,136.5c9.91.08,16.21,6.72,16.18,17.07-.02,10.42-6.64,17.34-16.52,17.26-10.07-.08-16.28-6.75-16.21-17.41.08-10.77,6.17-17.01,16.54-16.93ZM348.9,153.82c.09-7.15-3.06-11.69-8.45-12.16-5.46-.47-9.39,3.53-10.06,10.24-.72,7.19,2.51,12.8,7.75,13.44,6.7.83,10.64-3.39,10.75-11.53Z"/>
  <path class="cls-1" d="M414.19,137.32c5.12,0,9.98-.31,14.79.09,4.86.4,7.23,2.91,7.83,7.13.58,4.07-1.17,6.88-5.39,8.9,1.28,2.64,2.64,5.25,3.82,7.93,1.2,2.72,2.24,5.52,3.35,8.3-6.1,1.7-6.99,1.25-9.06-4.41-.64-1.76-1.45-3.46-2.02-5.23-1.05-3.29-3.33-3.99-6.7-3.32v13.33h-6.62v-32.72ZM420.95,152.04c3.19-1.18,5.94-1.78,8.13-3.23.74-.49.67-4.15-.07-4.58-2.26-1.33-5.03-1.79-8.06-2.74v10.55Z"/>
  <path class="cls-1" d="M252.06,157.96v12.13h-6.42v-33.67c5.42.59,10.78.66,15.86,1.87,4.79,1.15,6.54,4.7,6.2,9.74-.31,4.54-2.86,7.83-7.25,8.84-2.53.58-5.17.68-8.38,1.08ZM252.29,142.34v9.96c3.15.33,6.18.37,7.79-2.51.7-1.26.68-3.52.02-4.84-1.52-3.07-4.61-2.8-7.81-2.6Z"/>
  <path class="cls-1" d="M166.4,169.27c.27-1.94.49-3.51.69-4.91,3.12.34,6.04,1.1,8.86.81,1.57-.16,3.9-1.9,4.16-3.26.25-1.29-1.45-3.4-2.83-4.45-1.62-1.25-3.86-1.67-5.76-2.6-4.45-2.17-6.23-5.67-5.4-10.37.75-4.26,3.84-7.31,8.43-7.71,3.51-.31,7.06-.06,10.93-.06-.23,2.66-.37,4.21-.52,5.93-2.4-.38-4.57-1.25-6.49-.87-1.9.38-4.27,1.64-5.13,3.22-1.39,2.54.93,3.99,3.08,4.97,2.15.98,4.39,1.78,6.47,2.89,3.43,1.84,4.88,4.9,4.59,8.71-.29,3.78-2.1,6.61-5.75,8.01-4.99,1.91-9.96,1.55-15.32-.3Z"/>
  <path class="cls-1" d="M492.1,142.2v-5.05h25.22v4.9h-9.25v28.06h-6.55v-27.91h-9.43Z"/>
</svg>